<svg width="20" height="20" viewBox="0 0 20 20" fill="none" xmlns="http://www.w3.org/2000/svg">
<path d="M10 2.08301C14.3723 2.08301 17.9167 5.62742 17.9167 9.99967C17.9167 14.3719 14.3723 17.9163 10 17.9163C5.62779 17.9163 2.08337 14.3719 2.08337 9.99967C2.08337 5.62742 5.62779 2.08301 10 2.08301ZM15.2159 5.52058L5.52094 15.2155C6.72409 16.2497 8.28908 16.8747 10 16.8747C13.797 16.8747 16.875 13.7966 16.875 9.99967C16.875 8.28871 16.25 6.72373 15.2159 5.52058ZM10 3.12467C6.20308 3.12467 3.12504 6.20272 3.12504 9.99967C3.12504 11.7106 3.75005 13.2756 4.7842 14.4788L14.4791 4.78384C13.276 3.74968 11.711 3.12467 10 3.12467Z" fill="#EA0000"/>
</svg>
