<svg width="18" height="18" viewBox="0 0 18 18" fill="none" xmlns="http://www.w3.org/2000/svg">
<path d="M4.4375 2C3.09131 2 2 3.09131 2 4.4375V13.0625C2 14.4087 3.09131 15.5 4.4375 15.5H13.0625C14.4087 15.5 15.5 14.4087 15.5 13.0625V4.4375C15.5 3.09131 14.4087 2 13.0625 2H4.4375ZM3.125 4.4375C3.125 3.71263 3.71263 3.125 4.4375 3.125H13.0625C13.7874 3.125 14.375 3.71263 14.375 4.4375V13.0625C14.375 13.7874 13.7874 14.375 13.0625 14.375H4.4375C3.71263 14.375 3.125 13.7874 3.125 13.0625V4.4375ZM12.71 6.71048C12.9298 6.49093 12.93 6.13478 12.7105 5.91498C12.4909 5.69519 12.1348 5.69498 11.915 5.91452L7.24743 10.5767L5.58563 8.91476C5.36596 8.69509 5.00981 8.69507 4.79013 8.91474C4.57045 9.1344 4.57044 9.49056 4.79011 9.71023L6.84943 11.7697C7.06901 11.9893 7.42499 11.9894 7.64471 11.7699L12.71 6.71048Z" fill="#2B9519"/>
</svg>
