<svg width="24" height="24" viewBox="0 0 24 24" fill="none" xmlns="http://www.w3.org/2000/svg">
<path fill-rule="evenodd" clip-rule="evenodd" d="M12 15.7501C12.1989 15.7501 12.3897 15.6711 12.5303 15.5304C12.671 15.3897 12.75 15.199 12.75 15.0001V4.02707L14.43 5.98807C14.5594 6.13924 14.7436 6.23281 14.942 6.24819C15.1404 6.26357 15.3368 6.19949 15.488 6.07007C15.6392 5.94064 15.7327 5.75647 15.7481 5.55805C15.7635 5.35964 15.6994 5.16324 15.57 5.01207L12.57 1.51207C12.4996 1.42973 12.4122 1.36363 12.3138 1.31831C12.2154 1.27298 12.1083 1.24951 12 1.24951C11.8917 1.24951 11.7846 1.27298 11.6862 1.31831C11.5878 1.36363 11.5004 1.42973 11.43 1.51207L8.43 5.01207C8.36591 5.08692 8.3172 5.17367 8.28664 5.26735C8.25607 5.36103 8.24426 5.45981 8.25188 5.55805C8.25949 5.6563 8.28638 5.75208 8.33101 5.83993C8.37565 5.92778 8.43714 6.00598 8.512 6.07007C8.58685 6.13415 8.67359 6.18287 8.76727 6.21343C8.86095 6.24399 8.95973 6.2558 9.05798 6.24819C9.15622 6.24057 9.25201 6.21368 9.33986 6.16905C9.42771 6.12442 9.50591 6.06292 9.57 5.98807L11.25 4.02807V15.0001C11.25 15.4141 11.586 15.7501 12 15.7501Z" fill="black"/>
<path d="M16 9C15.298 9 14.947 9 14.694 9.169C14.5852 9.24179 14.4918 9.33522 14.419 9.444C14.25 9.697 14.25 10.048 14.25 10.75V15C14.25 15.5967 14.0129 16.169 13.591 16.591C13.169 17.0129 12.5967 17.25 12 17.25C11.4033 17.25 10.831 17.0129 10.409 16.591C9.98705 16.169 9.75 15.5967 9.75 15V10.75C9.75 10.048 9.75 9.697 9.581 9.444C9.50821 9.33522 9.41478 9.24179 9.306 9.169C9.053 9 8.702 9 8 9C5.172 9 3.757 9 2.879 9.879C2 10.757 2 12.17 2 14.999V15.999C2 18.829 2 20.242 2.879 21.121C3.757 22 5.172 22 8 22H16C18.828 22 20.243 22 21.121 21.121C22 20.242 22 18.828 22 16V15C22 12.171 22 10.757 21.121 9.879C20.243 9 18.828 9 16 9Z" fill="black"/>
</svg>
