<svg width="29" height="29" viewBox="0 0 29 29" fill="none" xmlns="http://www.w3.org/2000/svg">
    <path fill-rule="evenodd" clip-rule="evenodd"
        d="M14.5 19.9383C14.7735 19.9383 15.0358 19.8296 15.2292 19.6362C15.4226 19.4428 15.5313 19.1806 15.5313 18.9071V3.8192L17.8413 6.5156C18.0192 6.7233 18.2725 6.852 18.5453 6.8732C18.8181 6.8944 19.0881 6.8062 19.296 6.6283C19.5039 6.4503 19.6325 6.1971 19.6536 5.9242C19.6748 5.6514 19.5867 5.3813 19.4088 5.1736L15.2838 0.361C15.187 0.2478 15.0668 0.1569 14.9315 0.0945997C14.7962 0.0322997 14.6489 0 14.5 0C14.3511 0 14.2038 0.0322997 14.0685 0.0945997C13.9332 0.1569 13.8131 0.2478 13.7163 0.361L9.59127 5.1736C9.50307 5.2764 9.43617 5.3958 9.39407 5.5245C9.35207 5.6533 9.33587 5.7892 9.34637 5.9242C9.35677 6.0594 9.39377 6.1911 9.45507 6.3118C9.51647 6.4327 9.60097 6.5402 9.70397 6.6283C9.80697 6.7163 9.92617 6.7834 10.055 6.8254C10.1839 6.8674 10.3196 6.8837 10.4548 6.8732C10.5898 6.8628 10.7215 6.8258 10.8424 6.7643C10.9631 6.703 11.0706 6.6184 11.1588 6.5156L13.4688 3.8206V18.9071C13.4688 19.4763 13.9308 19.9383 14.5 19.9383Z"
        fill="white" />
    <path
        d="M20 10.6572C19.0347 10.6572 18.5521 10.6572 18.2043 10.8896C18.0547 10.9897 17.9262 11.1181 17.8261 11.2677C17.5938 11.6156 17.5938 12.0982 17.5938 13.0635V18.9072C17.5938 19.7277 17.2677 20.5146 16.6876 21.0949C16.1074 21.675 15.3205 22.001 14.5 22.001C13.6795 22.001 12.8926 21.675 12.3124 21.0949C11.7323 20.5146 11.4062 19.7277 11.4062 18.9072V13.0635C11.4062 12.0982 11.4062 11.6156 11.1739 11.2677C11.0738 11.1181 10.9453 10.9897 10.7957 10.8896C10.4479 10.6572 9.9653 10.6572 9 10.6572C5.1115 10.6572 3.1659 10.6572 1.9586 11.8659C0.75 13.0731 0.75 15.016 0.75 18.9059V20.2809C0.75 24.1721 0.75 26.115 1.9586 27.3236C3.1659 28.5322 5.1115 28.5322 9 28.5322H20C23.8885 28.5322 25.8341 28.5322 27.0414 27.3236C28.25 26.115 28.25 24.1707 28.25 20.2822V18.9072C28.25 15.0174 28.25 13.0731 27.0414 11.8659C25.8341 10.6572 23.8885 10.6572 20 10.6572Z"
        fill="white" />
</svg>
